<svg width="1440" height="70" viewBox="0 0 1440 70" fill="none" xmlns="http://www.w3.org/2000/svg">
<path fill-rule="evenodd" clip-rule="evenodd" d="M0 35L30 42.2917C60 49.5833 120 64.1667 180 67.0833C240 70 300 61.25 360 55.4167C420 49.5833 480 46.6667 540 37.9167C600 29.1667 660 14.5833 720 21.875C780 29.1667 840 58.3333 900 61.25C960 64.1667 1020 40.8333 1080 37.9167C1140 35 1200 52.5 1260 61.25C1320 70 1380 70 1410 70H1440V0H1410C1380 0 1320 0 1260 0C1200 0 1140 0 1080 0C1020 0 960 0 900 0C840 0 780 0 720 0C660 0 600 0 540 0C480 0 420 0 360 0C300 0 240 0 180 0C120 0 60 0 30 0H0V35Z" fill="url(#paint0_linear_21_142)"/>
<defs>
<linearGradient id="paint0_linear_21_142" x1="720" y1="0" x2="720" y2="70" gradientUnits="userSpaceOnUse">
<stop stop-color="#048EEC"/>
<stop offset="1" stop-color="#00BAFF"/>
</linearGradient>
</defs>
</svg>
